<svg width="286" height="286" viewBox="0 0 286 286" fill="none" xmlns="http://www.w3.org/2000/svg">
<circle cx="143" cy="143" r="143" fill="#383F47"/>
<g filter="url(#filter0_d_2024_5)">
<path d="M122.5 195.5C121.333 197.167 115.4 200.5 101 200.5H42V84.5L108 85.5C125 87.5 159 102.4 159 146H190.5C195.833 144.5 206.5 138.3 206.5 125.5C206.5 112.7 194.5 108.167 188.5 107.5H159C153.5 99.6667 141.1 84 135.5 84H199.5C210.667 87.3333 233 99.6 233 122C233 144.4 219.333 158 212.5 162L243.5 200.5H207L185 168.5H159V200.5H132V133C129 124.5 119.2 107.5 104 107.5H68.5V178.5H104C108 177.333 117.3 173.7 122.5 168.5V195.5Z" fill="white"/>
</g>
<defs>
<filter id="filter0_d_2024_5" x="38" y="84" width="209.5" height="124.5" filterUnits="userSpaceOnUse" color-interpolation-filters="sRGB">
<feFlood flood-opacity="0" result="BackgroundImageFix"/>
<feColorMatrix in="SourceAlpha" type="matrix" values="0 0 0 0 0 0 0 0 0 0 0 0 0 0 0 0 0 0 127 0" result="hardAlpha"/>
<feOffset dy="4"/>
<feGaussianBlur stdDeviation="2"/>
<feComposite in2="hardAlpha" operator="out"/>
<feColorMatrix type="matrix" values="0 0 0 0 0 0 0 0 0 0 0 0 0 0 0 0 0 0 0.25 0"/>
<feBlend mode="normal" in2="BackgroundImageFix" result="effect1_dropShadow_2024_5"/>
<feBlend mode="normal" in="SourceGraphic" in2="effect1_dropShadow_2024_5" result="shape"/>
</filter>
</defs>
</svg>
